<svg width="22" height="24" viewBox="0 0 22 24" fill="currentColor" xmlns="http://www.w3.org/2000/svg">
<path d="M15.5215 10.3125C15.5215 9.79472 15.1018 9.375 14.584 9.375H4.92773C4.40995 9.375 3.99023 9.79472 3.99023 10.3125C3.99023 10.8303 4.40995 11.25 4.92773 11.25H14.584C15.1018 11.25 15.5215 10.8303 15.5215 10.3125ZM4.92773 13.125C4.40995 13.125 3.99023 13.5447 3.99023 14.0625C3.99023 14.5803 4.40995 15 4.92773 15H10.7923C11.3101 15 11.7298 14.5803 11.7298 14.0625C11.7298 13.5447 11.3101 13.125 10.7923 13.125H4.92773Z" fill="currentColor"/>
<path d="M7.13078 22.125H3.99536C2.96149 22.125 2.12036 21.2839 2.12036 20.25V3.75C2.12036 2.71613 2.96149 1.875 3.99536 1.875H15.5214C16.5553 1.875 17.3964 2.71613 17.3964 3.75V9.51562C17.3964 10.0334 17.8161 10.4531 18.3339 10.4531C18.8517 10.4531 19.2714 10.0334 19.2714 9.51562V3.75C19.2714 1.68225 17.5892 0 15.5214 0H3.99536C1.92761 0 0.245361 1.68225 0.245361 3.75V20.25C0.245361 22.3177 1.92761 24 3.99536 24H7.13078C7.64856 24 8.06828 23.5803 8.06828 23.0625C8.06828 22.5447 7.64856 22.125 7.13078 22.125Z" fill="currentColor"/>
<path d="M20.932 13.5737C19.8354 12.4771 18.0512 12.477 16.9553 13.5729L11.8083 18.7086C11.699 18.8176 11.6183 18.952 11.5734 19.0997L10.4525 22.79C10.4037 22.9506 10.399 23.1214 10.4387 23.2845C10.4785 23.4476 10.5613 23.597 10.6785 23.7171C10.7957 23.8373 10.9431 23.9238 11.1051 23.9675C11.2672 24.0113 11.4381 24.0107 11.5998 23.9659L15.3838 22.9177C15.5395 22.8746 15.6815 22.792 15.7958 22.6778L20.9321 17.5512C22.0287 16.4546 22.0287 14.6704 20.932 13.5737ZM14.6457 21.1766L12.742 21.704L13.2991 19.8698L16.7721 16.4046L18.0982 17.7307L14.6457 21.1766ZM19.6069 16.2248L19.4253 16.4061L18.0994 15.0802L18.2805 14.8996C18.646 14.5341 19.2407 14.5341 19.6063 14.8996C19.9718 15.2651 19.9718 15.8599 19.6069 16.2248ZM14.584 5.625H4.92773C4.40995 5.625 3.99023 6.04472 3.99023 6.5625C3.99023 7.08028 4.40995 7.5 4.92773 7.5H14.584C15.1018 7.5 15.5215 7.08028 15.5215 6.5625C15.5215 6.04472 15.1018 5.625 14.584 5.625Z" fill="currentColor"/>
</svg>
