<svg width="144" height="50" viewBox="0 0 144 50" fill="none" xmlns="http://www.w3.org/2000/svg">
<path d="M7.2431 50H56.5045C60.5023 50 63.7476 46.7593 63.7476 42.7569V7.2431C63.7476 3.24532 60.5069 0 56.5045 0H7.2431C3.24532 0 0 3.2407 0 7.2431V42.7569C0 46.7547 3.2407 50 7.2431 50ZM3.91931 11.1578C3.91931 7.16 7.16 3.91469 11.1624 3.91469H52.5852C56.583 3.91469 59.8283 7.15539 59.8283 11.1578V38.4267C59.8283 42.4245 56.5876 45.6698 52.5852 45.6698H11.1578C7.16 45.6698 3.91469 42.4291 3.91469 38.4267V11.1578H3.91931Z" fill="#FFEF00"/>
<path d="M54.7231 9.94365C54.3399 10.2529 53.9706 10.5807 53.592 10.9454C53.5228 11.01 52.8811 11.5501 51.7963 10.8854L51.7224 10.8485C51.7224 10.8485 51.1823 10.5807 49.9774 9.6205C49.7235 9.39891 47.4661 7.43695 45.1764 7.50158C44.7517 7.47388 42.9975 7.4785 41.3309 9.06192L40.1722 10.1283C39.8953 10.4007 39.369 10.7284 39.1336 10.6407L38.8473 10.553C38.6673 10.4607 38.2426 10.2114 37.4301 9.57895C37.2316 9.42199 35.4404 8.06478 33.8478 7.79241C33.4739 7.7047 31.1657 7.21999 29.1622 8.31407C28.9867 8.39716 28.2158 8.8034 26.9463 9.97596L26.8955 10.0314C26.697 10.2529 26.1569 10.6961 25.7599 10.6546H25.6537C25.5337 10.6407 25.1228 10.5899 24.5227 10.2576C24.3381 10.1468 23.8072 9.81439 22.9162 9.10809C22.6623 8.8865 20.4003 6.92453 18.1152 6.98916C17.6905 6.96146 15.9316 6.9707 14.2697 8.5495L13.1064 9.6205C12.834 9.89286 12.3078 10.2206 12.0677 10.1329L11.7815 10.0452C11.6015 9.95288 11.1768 9.7036 10.3689 9.07115C10.3643 9.06654 9.70875 8.55874 8.84549 8.08325L7.13281 7.13689V11.9195L7.62676 12.2657C7.93145 12.478 8.22689 12.6996 8.49464 12.9074C8.77163 13.1428 10.8121 14.7955 13.1295 14.26C13.448 14.2046 14.7637 13.9184 15.9455 12.6858C16.204 12.4134 17.0765 11.564 17.6535 11.2639C17.672 11.2547 18.129 11.0239 18.7199 11.3286C18.7522 11.347 19.5509 11.7902 20.2756 12.3719C20.3634 12.4411 21.0835 12.9858 21.7944 13.4706V13.5306L22.3715 13.863C22.51 13.946 22.6392 14.0153 22.75 14.0661L22.7916 14.0892C22.7916 14.0892 22.9347 14.1722 23.1563 14.2738C23.4794 14.4261 24.1442 14.7031 24.9474 14.8139C25.9492 14.9709 26.8724 14.8739 27.6618 14.5369C27.7311 14.5092 28.3451 14.2738 29.0652 13.7475L29.5407 13.4013V13.2674C29.61 13.2028 29.6838 13.1382 29.7577 13.0643C30.2332 12.5704 31.2118 11.8364 31.8027 11.8133H31.8535C31.8997 11.804 32.9891 11.6979 33.894 12.2518C33.9032 12.2565 34.6926 12.7319 35.5328 13.4013C35.759 13.5998 37.8271 15.3079 40.1768 14.7678C40.4954 14.7124 41.8111 14.4262 42.9928 13.1936C43.256 12.9212 44.1239 12.0718 44.6963 11.7717C44.7148 11.7625 45.1764 11.5271 45.7719 11.8364C45.8042 11.8548 46.6029 12.298 47.3276 12.8797C47.3969 12.9304 49.0218 14.1723 49.8389 14.597C49.982 14.6801 51.2839 15.4002 52.895 15.4002C53.5551 15.4002 54.1737 15.2756 54.7184 15.0494C54.7877 15.0217 55.4063 14.7862 56.1218 14.26L56.5973 13.9137V8.41101L54.7138 9.93903L54.7231 9.94365Z" fill="#FFEF00"/>
<path d="M53.5874 18.895C53.5182 18.9596 52.8765 19.4997 51.7917 18.835L51.7178 18.798C51.7178 18.798 51.1777 18.5303 49.9728 17.5701C49.7235 17.3485 47.5077 15.4465 45.2503 15.4465C45.2226 15.4465 45.1949 15.4465 45.1718 15.4465C44.7471 15.4235 42.9836 15.4373 41.331 17.0069L40.1722 18.0733C39.8999 18.3456 39.369 18.6734 39.1336 18.5857L38.8473 18.498C38.6673 18.4056 38.2426 18.1563 37.4301 17.5239C37.2316 17.3669 35.4404 16.0097 33.8478 15.7374C33.5385 15.6635 31.1703 15.1649 29.1622 16.259C28.9868 16.3421 28.2158 16.7484 26.9463 17.9209L26.8955 17.9763C26.697 18.1979 26.1523 18.6365 25.7137 18.5995H25.6445C25.6445 18.5995 25.2013 18.5811 24.5227 18.2025C24.3381 18.0917 23.8072 17.7593 22.9208 17.053C22.6669 16.8314 20.3911 14.9018 18.1198 14.9341C17.6951 14.911 15.9362 14.9203 14.2744 16.4945L13.111 17.5608C12.8387 17.8332 12.3078 18.161 12.0723 18.0733L11.7861 17.9855C11.6061 17.8932 11.1814 17.6439 10.3689 17.0069C10.3412 16.9838 9.6949 16.4852 8.84549 16.019L7.13281 15.0726V19.8552L7.62676 20.2014C7.93145 20.4138 8.23151 20.6353 8.49465 20.8431C8.77163 21.0785 10.8121 22.7312 13.1295 22.1957C13.448 22.1403 14.7637 21.8541 15.9455 20.6215C16.3333 20.2153 17.1365 19.4674 17.6535 19.1996C17.672 19.1904 18.129 18.9596 18.7199 19.2643C18.7522 19.2827 19.5509 19.7259 20.2756 20.3076C20.3634 20.3768 21.0835 20.9216 21.7944 21.4063V21.4663L22.3715 21.7987C22.51 21.8818 22.6392 21.9464 22.75 22.0018L22.7962 22.0249C22.7962 22.0249 22.9393 22.108 23.1609 22.2095C23.484 22.3665 24.1488 22.6388 24.952 22.7496C25.9538 22.9066 26.8771 22.8097 27.6665 22.4727C27.7357 22.445 28.3497 22.2095 29.0698 21.6833L29.5453 21.337V21.2032C29.6146 21.1385 29.6884 21.0739 29.7623 21C30.2378 20.5061 31.2165 19.7721 31.8074 19.749H31.8674C31.8674 19.749 32.9892 19.6244 33.8986 20.1829C33.9309 20.2014 34.7249 20.6861 35.542 21.3324C35.7728 21.5309 37.8364 23.239 40.1907 22.6989C40.5092 22.6435 41.8249 22.3573 43.0067 21.1247C43.2698 20.8523 44.1377 20.0029 44.7101 19.7028C44.7286 19.6936 45.1902 19.4582 45.7811 19.7675C45.8135 19.7859 46.6121 20.2291 47.3369 20.8108C47.4061 20.8615 49.0311 22.1034 49.8482 22.5281C49.9913 22.6112 51.2931 23.3313 52.9042 23.3313C53.5644 23.3313 54.1829 23.2067 54.7277 22.9805C54.7969 22.9528 55.4155 22.7173 56.1311 22.1911L56.6065 21.8448V16.3421L54.7231 17.8701C54.3399 18.1794 53.9706 18.5072 53.5921 18.8719L53.5874 18.895Z" fill="#FFEF00"/>
<path d="M53.592 27.0334C53.5228 27.098 52.8811 27.6382 51.8332 26.9965L51.7178 26.9365C51.7178 26.9365 51.1777 26.6687 49.9728 25.7085C49.8712 25.6208 47.503 23.5619 45.1718 23.5896C44.7563 23.5665 42.9882 23.5758 41.3263 25.1499L40.163 26.2209C39.8906 26.4933 39.3644 26.8164 39.1289 26.7334L38.8427 26.6456C38.6627 26.5533 38.238 26.304 37.4255 25.6716C37.227 25.5146 35.4358 24.1574 33.8432 23.885C33.4693 23.7973 31.1611 23.3126 29.1576 24.4067C28.9821 24.4898 28.2112 24.896 26.9417 26.0686L26.8863 26.124C26.6878 26.341 26.1477 26.7841 25.7045 26.7426H25.6399C25.6399 26.7426 25.1921 26.7241 24.5135 26.3456C24.3288 26.2348 23.7979 25.9024 22.9116 25.1961C22.6577 24.9745 20.3864 23.0218 18.1106 23.0772C17.6905 23.0541 15.927 23.0633 14.2697 24.6375L13.1064 25.7039C12.8387 25.9717 12.3124 26.304 12.0677 26.2163L11.7815 26.1286C11.6015 26.0363 11.1768 25.787 10.3689 25.1546C10.3643 25.1499 9.70875 24.6421 8.84549 24.1666L7.13281 23.2203V28.0029L7.62676 28.3491C7.93145 28.5614 8.22689 28.783 8.49464 28.9908C8.77163 29.2262 10.8121 30.8789 13.1295 30.3434C13.448 30.288 14.7637 30.0018 15.9455 28.7692C16.204 28.4968 17.0765 27.6474 17.6489 27.3473C17.6674 27.3381 18.1244 27.1073 18.7153 27.412C18.7476 27.4304 19.5463 27.8736 20.271 28.4553C20.3587 28.5245 21.0789 29.0692 21.7898 29.554V29.614L22.3622 29.9463C22.5007 30.0294 22.6346 30.0987 22.7362 30.1495L22.7823 30.1726C22.7823 30.1726 22.9301 30.2557 23.1516 30.3572C23.4748 30.5096 24.1395 30.7865 24.9428 30.8973C25.9446 31.0543 26.8678 30.9573 27.6572 30.6204C27.7265 30.5927 28.3405 30.3572 29.0606 29.8309L29.5361 29.4847V29.3508C29.6053 29.2862 29.6792 29.2216 29.7531 29.1477C30.2239 28.6584 31.2026 27.9198 31.7981 27.9013H31.8489C31.8951 27.8921 32.9845 27.7859 33.8893 28.3399C33.8986 28.3445 34.688 28.82 35.5282 29.4893C35.759 29.6878 37.8225 31.3959 40.1768 30.8512C40.4954 30.7958 41.8111 30.5096 42.9928 29.277C43.256 29.0046 44.1239 28.1552 44.6963 27.8551C44.7148 27.8459 45.1764 27.6105 45.7673 27.9198C45.7996 27.9382 46.5982 28.3814 47.323 28.9631C47.3922 29.0138 49.0172 30.2556 49.8343 30.6804C49.9774 30.7634 51.2792 31.4836 52.8904 31.4836C53.5505 31.4836 54.1691 31.359 54.7092 31.1328C54.7369 31.1235 55.3694 30.8881 56.1218 30.3434L56.5973 29.9971V24.4944L54.7138 26.0224C54.3307 26.3317 53.9614 26.6595 53.5828 27.0242L53.592 27.0334Z" fill="#FFEF00"/>
<path d="M15.6913 41.6165C17.7947 41.6165 19.4998 39.9114 19.4998 37.808C19.4998 35.7046 17.7947 33.9995 15.6913 33.9995C13.5879 33.9995 11.8828 35.7046 11.8828 37.808C11.8828 39.9114 13.5879 41.6165 15.6913 41.6165Z" fill="#FFEF00"/>
<path d="M50.7431 40.5016C52.2305 39.0143 52.2305 36.6029 50.7431 35.1156C49.2558 33.6283 46.8444 33.6283 45.3571 35.1156C43.8698 36.6029 43.8698 39.0143 45.3571 40.5016C46.8444 41.9889 49.2558 41.9889 50.7431 40.5016Z" fill="#FFEF00"/>
<path d="M22.0391 33.1318L23.0731 42.48H23.8995L22.9623 33.1318H22.0391Z" fill="#FFEF00"/>
<path d="M24.3828 33.1318L25.1722 42.48H25.9985L25.3061 33.1318H24.3828Z" fill="#FFEF00"/>
<path d="M26.7266 33.1318L27.2667 42.48H28.093L27.6498 33.1318H26.7266Z" fill="#FFEF00"/>
<path d="M29.0625 33.1318L29.3579 42.48H30.1843L29.9858 33.1318H29.0625Z" fill="#FFEF00"/>
<path d="M31.4524 42.48H32.2787L32.3295 33.1318H31.4062L31.4524 42.48Z" fill="#FFEF00"/>
<path d="M33.5547 42.48H34.381L34.6765 33.1318H33.7532L33.5547 42.48Z" fill="#FFEF00"/>
<path d="M35.6484 42.48H36.4702L37.0149 33.1318H36.0916L35.6484 42.48Z" fill="#FFEF00"/>
<path d="M37.75 42.48H38.5763L39.3611 33.1318H38.4378L37.75 42.48Z" fill="#FFEF00"/>
<path d="M39.8438 42.48H40.6701L41.7042 33.1318H40.7809L39.8438 42.48Z" fill="#FFEF00"/>
<path d="M76.9029 18.0357C76.6582 17.7864 76.3536 17.5556 75.9842 17.3479C75.6149 17.1401 75.181 16.9416 74.6824 16.7477C73.9115 16.4477 73.3483 16.1938 72.9974 15.986C72.6466 15.7783 72.4712 15.469 72.4712 15.0535C72.4712 14.7119 72.5958 14.4442 72.8451 14.2595C73.0944 14.0748 73.4499 13.9825 73.9069 13.9825C74.4885 13.9825 75.0194 14.0933 75.5041 14.3103C75.9889 14.5272 76.4736 14.8042 76.9537 15.1412L77.1891 12.8654C76.7321 12.6068 76.2335 12.4037 75.6934 12.256C75.1533 12.1036 74.5439 12.0298 73.8653 12.0298C73.0482 12.0298 72.3465 12.1637 71.751 12.4268C71.1555 12.6899 70.6985 13.0592 70.38 13.5301C70.0568 14.001 69.8952 14.5457 69.8952 15.1597C69.8952 15.7737 70.0153 16.2538 70.2553 16.6554C70.4954 17.0616 70.8462 17.4033 71.3078 17.6895C71.7695 17.9757 72.3281 18.2388 72.9882 18.4835C73.4221 18.6497 73.7868 18.802 74.0823 18.9451C74.3777 19.0882 74.5947 19.2498 74.7424 19.4298C74.8902 19.6099 74.964 19.8361 74.964 20.1177C74.964 20.4916 74.8255 20.7594 74.5439 20.9348C74.267 21.1056 73.8607 21.1933 73.3298 21.1933C72.7435 21.1933 72.185 21.0964 71.6495 20.8979C71.1186 20.6993 70.5738 20.4408 70.0245 20.1177L69.7891 22.3936C70.3615 22.6521 70.9293 22.846 71.5017 22.9845C72.0696 23.1183 72.7066 23.1876 73.4175 23.1876C74.3177 23.1876 75.084 23.0629 75.7073 22.8136C76.3351 22.5644 76.8106 22.1997 77.1337 21.7242C77.4569 21.2487 77.6231 20.6716 77.6231 19.993C77.6231 19.5776 77.563 19.2129 77.4476 18.8943C77.3276 18.5758 77.1476 18.2896 76.9075 18.0403L76.9029 18.0357Z" fill="#FFEF00"/>
<path d="M85.9938 20.8099C85.583 20.9346 85.1675 20.9992 84.7428 20.9992C83.7549 20.9992 82.9747 20.676 82.393 20.0297C81.816 19.3835 81.5252 18.5848 81.5252 17.6338C81.5252 16.6321 81.8068 15.8196 82.3746 15.201C82.9378 14.5778 83.7364 14.2685 84.7658 14.2685C85.2183 14.2685 85.6476 14.3285 86.0584 14.4393C86.4693 14.5547 86.8386 14.6978 87.1664 14.8686L87.3787 12.722C87.0371 12.5281 86.6216 12.3666 86.1323 12.2327C85.6476 12.0988 85.1029 12.0342 84.5027 12.0342C83.2286 12.0342 82.1715 12.2881 81.3267 12.7959C80.4819 13.3037 79.8494 13.9823 79.4293 14.8271C79.0092 15.6765 78.7969 16.609 78.7969 17.6338C78.7969 18.6587 79.0092 19.5773 79.4339 20.4175C79.8586 21.2577 80.4865 21.9271 81.322 22.4349C82.153 22.9381 83.1871 23.192 84.415 23.192C84.9921 23.192 85.546 23.132 86.0723 23.0165C86.5986 22.8965 87.0463 22.7442 87.4203 22.5503L87.1848 20.2975C86.7971 20.5191 86.4001 20.6945 85.9892 20.8191L85.9938 20.8099Z" fill="#FFEF00"/>
<path d="M92.9055 12.4773C92.4115 12.7774 92.0283 13.0775 91.756 13.3775L91.6913 12.2419H89.2031V22.9704H91.8621V15.6534C92.0145 15.3534 92.273 15.0995 92.6469 14.8917C93.0209 14.684 93.4317 14.5824 93.8795 14.5824C94.0318 14.5824 94.1796 14.5917 94.3365 14.6055C94.4889 14.6193 94.6458 14.647 94.8028 14.6932L94.9967 12.0757C94.8536 12.048 94.6966 12.0342 94.5258 12.0342C93.9395 12.0342 93.3994 12.1865 92.9055 12.4866V12.4773Z" fill="#FFEF00"/>
<path d="M98.9403 12.2422H96.2812V22.9707H98.9403V12.2422Z" fill="#FFEF00"/>
<path d="M98.9403 7.95361H96.2812V10.6126H98.9403V7.95361Z" fill="#FFEF00"/>
<path d="M109.679 12.833C108.964 12.3252 108.082 12.0713 107.029 12.0713C106.194 12.0713 105.483 12.2236 104.906 12.5283C104.541 12.7222 104.195 12.9576 103.863 13.23L103.576 12.2421H101.43V28.1594H104.089V22.3104C104.393 22.5274 104.693 22.7074 104.989 22.8413C105.511 23.0721 106.189 23.1829 107.029 23.1829C108.082 23.1829 108.964 22.929 109.679 22.4212C110.395 21.9134 110.935 21.2394 111.304 20.3946C111.673 19.5498 111.858 18.6265 111.858 17.6248C111.858 16.623 111.673 15.6998 111.304 14.855C110.935 14.0102 110.395 13.3362 109.679 12.8284V12.833ZM108.474 20.0576C108.036 20.6854 107.417 20.9948 106.623 20.9948C106.009 20.9948 105.506 20.8516 105.109 20.5654C104.717 20.2792 104.426 19.8868 104.241 19.379C104.056 18.8758 103.964 18.2896 103.964 17.6248C103.964 16.96 104.056 16.3738 104.241 15.8706C104.426 15.3674 104.717 14.9704 105.109 14.6842C105.501 14.3979 106.005 14.2548 106.623 14.2548C107.417 14.2548 108.036 14.5641 108.474 15.1873C108.913 15.8106 109.134 16.623 109.134 17.6202C109.134 18.6173 108.913 19.4252 108.474 20.0484V20.0576Z" fill="#FFEF00"/>
<path d="M119.213 14.4303V12.2421H116.854V9.60156L114.195 9.87855V12.2375H112.907L112.672 14.4257H114.195V20.367C114.195 20.8332 114.297 21.2764 114.495 21.7057C114.694 22.135 115.008 22.4859 115.428 22.7629C115.848 23.0398 116.397 23.1737 117.067 23.1737H118.978L119.213 20.9856H118.484C117.985 20.9856 117.616 20.9532 117.39 20.8932C117.159 20.8332 117.016 20.6809 116.951 20.4408C116.887 20.2008 116.854 19.8084 116.854 19.2683V14.4211H119.213V14.4303Z" fill="#FFEF00"/>
<path d="M75.1948 30.9385C74.4424 30.9385 73.7868 31.077 73.2236 31.3586C72.8913 31.5201 72.5958 31.7002 72.3188 31.8848L72.2773 31.1139H69.7891V41.8424H72.4481V34.0776C72.6143 33.8884 72.7897 33.7222 72.9744 33.579C73.3621 33.2836 73.8561 33.1359 74.4655 33.1359C75.2179 33.1359 75.758 33.3759 76.0904 33.856C76.4228 34.3361 76.589 35.0748 76.589 36.0765V41.847H79.248V35.8595C79.248 34.4054 78.9156 33.2236 78.2509 32.3142C77.5861 31.4047 76.5659 30.9477 75.1948 30.9477V30.9385Z" fill="#FFEF00"/>
<path d="M88.7953 31.5709C88.1075 31.1508 87.2488 30.9385 86.2193 30.9385C85.0976 30.9385 84.1466 31.1924 83.3664 31.6956C82.5863 32.1988 81.9954 32.8681 81.5891 33.6945C81.1829 34.5254 80.9844 35.4302 80.9844 36.4089C80.9844 37.3876 81.1967 38.3616 81.6261 39.2157C82.0554 40.0697 82.7017 40.7575 83.5603 41.2746C84.4236 41.7916 85.4992 42.0547 86.7964 42.0547C87.5627 42.0547 88.2459 41.9716 88.8553 41.8101C89.4647 41.6439 89.9725 41.4546 90.3787 41.2422L90.2495 38.9894C89.797 39.2526 89.3031 39.4649 88.7676 39.6265C88.2321 39.7881 87.6504 39.8666 87.0318 39.8666C86.501 39.8666 86.007 39.7696 85.5454 39.5757C85.0837 39.3818 84.6959 39.0818 84.3774 38.6709C84.0589 38.2601 83.8511 37.7199 83.7496 37.0552H90.6788C90.7342 36.7967 90.7803 36.5474 90.808 36.3119C90.8357 36.0719 90.8496 35.8319 90.8496 35.5964C90.8496 34.747 90.6788 33.9668 90.3372 33.2651C89.9956 32.5588 89.4785 31.9956 88.7907 31.5755L88.7953 31.5709ZM83.8188 35.2502C83.9481 34.6362 84.2066 34.1284 84.6036 33.7268C84.996 33.3251 85.5361 33.1266 86.224 33.1266C86.7041 33.1266 87.0826 33.2374 87.3642 33.459C87.6458 33.6806 87.8489 33.953 87.969 34.2807C88.089 34.6085 88.149 34.9317 88.149 35.2502H83.8142H83.8188Z" fill="#FFEF00"/>
<path d="M95.9637 28.4687L93.3046 28.7457V31.1047H92.0167L91.7812 33.2928H93.3046V39.2341C93.3046 39.7004 93.4062 40.1435 93.6047 40.5729C93.8032 41.0022 94.1171 41.353 94.5372 41.63C94.9573 41.907 95.5067 42.0409 96.176 42.0409H98.0872L98.3227 39.8527H97.5933C97.0947 39.8527 96.73 39.8204 96.4992 39.7604C96.2684 39.7004 96.1253 39.548 96.0606 39.308C95.996 39.0679 95.9637 38.6755 95.9637 38.1354V33.2882H98.3227V31.1H95.9637V28.4595V28.4687Z" fill="#FFEF00"/>
<path d="M109.718 38.5971L107.724 31.3263H105.49L103.472 38.5971L101.63 31.1094H99.0312L102.166 41.8378H104.395L106.607 34.844L108.818 41.8378H111.048L114.178 31.1094H111.583L109.718 38.5971Z" fill="#FFEF00"/>
<path d="M123.358 31.6633C122.536 31.1509 121.544 30.897 120.376 30.897C119.208 30.897 118.215 31.1509 117.394 31.6633C116.572 32.1757 115.944 32.8543 115.51 33.7083C115.076 34.5578 114.859 35.4903 114.859 36.4966C114.859 37.503 115.076 38.4217 115.51 39.2665C115.944 40.1113 116.572 40.7853 117.394 41.2931C118.215 41.8009 119.213 42.0548 120.376 42.0548C121.539 42.0548 122.536 41.8009 123.358 41.2931C124.18 40.7853 124.808 40.1113 125.242 39.2665C125.676 38.4217 125.893 37.4984 125.893 36.4966C125.893 35.4949 125.676 34.5578 125.242 33.7083C124.808 32.8589 124.18 32.1757 123.358 31.6633ZM122.439 38.9249C121.955 39.5527 121.267 39.862 120.376 39.862C119.485 39.862 118.802 39.5481 118.317 38.9249C117.832 38.3017 117.588 37.4892 117.588 36.4966C117.588 35.5041 117.832 34.6686 118.317 34.0361C118.802 33.4037 119.49 33.0851 120.376 33.0851C121.262 33.0851 121.959 33.4037 122.439 34.0361C122.924 34.6686 123.164 35.4903 123.164 36.4966C123.164 37.503 122.924 38.3017 122.439 38.9249Z" fill="#FFEF00"/>
<path d="M131.437 31.3445C130.943 31.6446 130.56 31.9447 130.287 32.2447L130.223 31.1091H127.734V41.8376H130.393V34.5206C130.546 34.2205 130.804 33.9666 131.178 33.7589C131.552 33.5512 131.963 33.4496 132.411 33.4496C132.563 33.4496 132.711 33.4588 132.868 33.4727C133.02 33.4865 133.177 33.5142 133.334 33.5604L133.528 30.9429C133.385 30.9152 133.228 30.9014 133.057 30.9014C132.471 30.9014 131.931 31.0537 131.437 31.3538V31.3445Z" fill="#FFEF00"/>
<path d="M139.884 36.2566L143.785 31.1094H140.784L137.461 35.5088V25.7451H134.797V41.8378H137.461V37.0737L140.867 41.8378H143.873L139.884 36.2566Z" fill="#FFEF00"/>
</svg>
