<svg width="20" height="20" viewBox="0 0 20 20" fill="currentColor" xmlns="http://www.w3.org/2000/svg">
<path d="M9.98869 0.00323859C9.72372 0.00624215 9.47073 0.114526 9.28513 0.304377C9.09953 0.494227 8.99645 0.750169 8.99846 1.01615V9.05521C8.99846 9.32184 9.10398 9.57756 9.29181 9.7661C9.47964 9.95464 9.7344 10.0606 10 10.0606C10.2657 10.0606 10.5204 9.95464 10.7083 9.7661C10.8961 9.57756 11.0016 9.32184 11.0016 9.05521V1.01615C11.0026 0.882529 10.9771 0.750045 10.9265 0.626445C10.8759 0.502844 10.8013 0.390608 10.7069 0.296298C10.6126 0.201988 10.5005 0.127495 10.3772 0.0771767C10.2539 0.0268579 10.1218 0.00172199 9.98869 0.00323859ZM15.8243 2.01395C15.7915 2.01233 15.7588 2.01233 15.726 2.01395C15.5277 2.03051 15.3387 2.10601 15.1833 2.23082C15.0279 2.35564 14.9131 2.5241 14.8535 2.71471C14.7938 2.90532 14.7921 3.10944 14.8486 3.30101C14.9051 3.49259 15.0171 3.66294 15.1704 3.79033C16.9052 5.26812 18.0013 7.46781 18.0013 9.93584C18.0013 14.3957 14.4334 17.99 10.0038 17.99C8.94999 17.988 7.9069 17.7782 6.93429 17.3725C5.96168 16.9668 5.07865 16.3733 4.33577 15.6258C3.59289 14.8784 3.00474 13.9917 2.60502 13.0166C2.2053 12.0416 2.00185 10.9972 2.00633 9.9434C2.00633 7.4867 3.08727 5.30214 4.80318 3.82056C4.90993 3.73705 4.9987 3.63269 5.06415 3.51379C5.1296 3.39488 5.17036 3.2639 5.18398 3.12874C5.19759 2.99358 5.18378 2.85705 5.14337 2.7274C5.10296 2.59775 5.03679 2.47767 4.94886 2.3744C4.86093 2.27113 4.75306 2.18682 4.63176 2.12656C4.51047 2.0663 4.37827 2.03135 4.24314 2.0238C4.10801 2.01625 3.97276 2.03627 3.84556 2.08264C3.71835 2.12902 3.60183 2.2008 3.50302 2.29363C2.40411 3.2406 1.52253 4.41361 0.918518 5.73253C0.314504 7.05144 0.00228231 8.48519 0.00318037 9.93584C0.000148792 12.5957 1.05129 15.1483 2.9264 17.0348C4.80152 18.9212 7.34778 19.9877 10.0076 20.0007C12.667 19.9887 15.2131 18.9223 17.0872 17.0354C18.9613 15.1485 20.0105 12.5953 20.0044 9.93584C20.0044 6.86686 18.6325 4.10781 16.4668 2.2634C16.2888 2.1066 16.0611 2.01822 15.8243 2.01395Z" fill="currentColor"/>
</svg>
