<svg width="20" height="20" viewBox="0 0 20 20" fill="currentColor" xmlns="http://www.w3.org/2000/svg">
<path d="M16.8199 12.36C16.2839 12.1427 15.7054 12.0505 15.1284 12.0903C14.5514 12.1302 13.991 12.3011 13.4899 12.59L11.7299 10.58L12.8499 7.84997C13.5281 7.97945 14.2286 7.92324 14.8774 7.68728C15.5261 7.45132 16.0991 7.04438 16.5356 6.50952C16.9721 5.97466 17.2559 5.33176 17.357 4.64883C17.4581 3.96591 17.3727 3.26836 17.1099 2.62997C16.7199 1.68997 15.9799 0.959966 15.0399 0.569966C14.0999 0.179966 13.0599 0.179966 12.1199 0.569966C11.1799 0.959966 10.4499 1.69997 10.0599 2.63997C9.66994 3.57997 9.67994 4.61997 10.0599 5.55997C10.3499 6.26997 10.8399 6.84997 11.4699 7.26997L10.3499 9.99997L7.68994 10.2C7.64994 10.05 7.60994 9.89997 7.54994 9.74997C7.15994 8.80997 6.41994 8.07997 5.47994 7.68997C4.53994 7.29997 3.49994 7.30997 2.55994 7.68997C1.61994 8.07997 0.889944 8.81997 0.499944 9.75997C0.109944 10.7 0.119944 11.74 0.499944 12.68C0.879944 13.62 1.62994 14.35 2.56994 14.74C3.03994 14.93 3.52994 15.03 4.01994 15.03C5.51994 15.03 6.94994 14.14 7.55994 12.66C7.68994 12.34 7.75994 12.01 7.79994 11.68L10.5499 11.48L12.3599 13.56C12.1599 13.82 11.9799 14.1 11.8399 14.42C11.4499 15.36 11.4599 16.4 11.8399 17.34C12.0321 17.8029 12.3139 18.2232 12.6692 18.5768C13.0244 18.9303 13.4461 19.2101 13.9099 19.4C14.3799 19.59 14.8699 19.69 15.3599 19.69C15.8499 19.69 16.3599 19.59 16.8299 19.39C17.5261 19.099 18.1204 18.6082 18.5377 17.9796C18.9549 17.351 19.1765 16.6128 19.1744 15.8583C19.1722 15.1038 18.9465 14.3668 18.5256 13.7406C18.1048 13.1144 17.5077 12.627 16.8099 12.34L16.8199 12.36ZM6.15994 12.11C6.04398 12.3919 5.87356 12.6481 5.65844 12.864C5.44332 13.08 5.18772 13.2514 4.90628 13.3684C4.62484 13.4855 4.32307 13.5458 4.01827 13.5461C3.71346 13.5464 3.41159 13.4865 3.12994 13.37C2.55994 13.13 2.10994 12.69 1.86994 12.12C1.62994 11.55 1.62994 10.92 1.86994 10.35C2.10274 9.78167 2.55136 9.32886 3.11746 9.0908C3.68357 8.85273 4.32097 8.84884 4.88994 9.07997C5.45994 9.31997 5.90994 9.75997 6.14994 10.33C6.38994 10.9 6.38994 11.53 6.14994 12.1L6.15994 12.11ZM11.4399 3.21997C11.6727 2.65167 12.1214 2.19886 12.6875 1.9608C13.2536 1.72273 13.891 1.71884 14.4599 1.94997C15.0299 2.18997 15.4799 2.62997 15.7199 3.19997C15.9599 3.76997 15.9599 4.39997 15.7199 4.96997C15.6048 5.25132 15.4352 5.50718 15.221 5.72287C15.0068 5.93857 14.7521 6.10986 14.4715 6.22691C14.191 6.34397 13.89 6.40449 13.586 6.40502C13.282 6.40554 12.9809 6.34605 12.6999 6.22997C12.1299 5.98997 11.6799 5.54997 11.4399 4.97997C11.1999 4.40997 11.1999 3.77997 11.4399 3.20997V3.21997ZM17.5199 16.77C17.2899 17.34 16.8399 17.79 16.2699 18.03C15.6999 18.27 15.0699 18.27 14.4999 18.03C13.9299 17.79 13.4799 17.35 13.2399 16.78C12.9999 16.21 12.9999 15.58 13.2399 15.01C13.4159 14.5843 13.714 14.2204 14.0967 13.9641C14.4793 13.7078 14.9294 13.5706 15.3899 13.57C15.6799 13.57 15.9799 13.63 16.2699 13.74C17.4499 14.23 18.0199 15.58 17.5299 16.77H17.5199Z" fill="currentColor"/>
</svg>
