<svg width="22" height="22" viewBox="0 0 22 22" fill="currentColor" xmlns="http://www.w3.org/2000/svg">
<path d="M1.2499 11.8326C1.05216 11.8326 0.862406 11.7545 0.721946 11.6153C0.581486 11.4761 0.501684 11.2871 0.499904 11.0893C0.481744 9.69454 0.744655 8.31037 1.27296 7.01937C1.80126 5.72838 2.58414 4.55699 3.5749 3.57508C3.88242 3.26933 4.20801 2.98232 4.5499 2.71558C4.70635 2.59255 4.90526 2.53671 5.10287 2.56034C5.20072 2.57204 5.29531 2.6029 5.38124 2.65115C5.46716 2.69941 5.54274 2.76411 5.60365 2.84158C5.66457 2.91904 5.70963 3.00774 5.73627 3.10262C5.76291 3.1975 5.77059 3.2967 5.75889 3.39455C5.74719 3.4924 5.71633 3.58698 5.66808 3.67291C5.61982 3.75883 5.55512 3.83441 5.47765 3.89533C5.18291 4.12618 4.90217 4.37437 4.6369 4.63858C3.78786 5.47953 3.11682 6.48281 2.66377 7.58863C2.21072 8.69444 1.98495 9.88015 1.9999 11.0751C2.00079 11.1736 1.98228 11.2713 1.9454 11.3626C1.90853 11.4539 1.85403 11.5371 1.78502 11.6074C1.716 11.6777 1.63381 11.7337 1.54316 11.7722C1.4525 11.8107 1.35515 11.8309 1.25665 11.8318L1.2499 11.8326ZM16.9857 19.4451C16.8295 19.4452 16.6773 19.3967 16.5501 19.3062C16.4229 19.2157 16.3271 19.0877 16.2761 18.9402C16.225 18.7927 16.2213 18.6329 16.2654 18.4831C16.3096 18.3334 16.3993 18.2011 16.5222 18.1048C16.8169 17.874 17.0976 17.6258 17.3629 17.3616C18.2119 16.5206 18.883 15.5173 19.336 14.4115C19.7891 13.3057 20.0149 12.12 19.9999 10.9251C19.999 10.8266 20.0175 10.7289 20.0544 10.6375C20.0913 10.5462 20.1458 10.463 20.2148 10.3928C20.2838 10.3225 20.366 10.2665 20.4567 10.228C20.5473 10.1895 20.6447 10.1692 20.7432 10.1683H20.7499C20.9477 10.1683 21.1374 10.2464 21.2779 10.3856C21.4183 10.5248 21.4981 10.7138 21.4999 10.9116C21.518 12.3062 21.255 13.6903 20.7267 14.9811C20.1984 16.272 19.4156 17.4432 18.4249 18.4251C18.1174 18.7313 17.7918 19.0189 17.4499 19.2861C17.3174 19.3896 17.1539 19.4456 16.9857 19.4451ZM10.9932 21.5001C9.61447 21.5054 8.24852 21.2362 6.97491 20.7083C5.7013 20.1804 4.54551 19.4042 3.5749 18.4251C3.36255 18.2147 3.16103 17.9937 2.97115 17.7628C2.90507 17.6871 2.85488 17.5989 2.82355 17.5034C2.79223 17.4079 2.78042 17.3071 2.78882 17.207C2.79722 17.1068 2.82566 17.0094 2.87245 16.9204C2.91924 16.8315 2.98343 16.7529 3.0612 16.6892C3.13898 16.6256 3.22875 16.5782 3.32518 16.5499C3.42162 16.5217 3.52276 16.5131 3.62259 16.5246C3.72241 16.5362 3.8189 16.5677 3.9063 16.6173C3.99371 16.6669 4.07026 16.7336 4.1314 16.8133C4.28815 17.0038 4.4584 17.1883 4.63615 17.3653C5.47616 18.2161 6.47963 18.8881 7.58617 19.3409C8.69271 19.7937 9.87944 20.018 11.0749 20.0001C11.2717 20.0049 11.4594 20.0843 11.5997 20.2223C11.7401 20.3604 11.8228 20.5466 11.8309 20.7433C11.8327 20.942 11.7556 21.1332 11.6165 21.2751C11.4775 21.417 11.2878 21.4979 11.0892 21.5001H10.9932ZM18.9132 6.06508C18.7924 6.06534 18.6733 6.03642 18.5661 5.9808C18.4589 5.92517 18.3667 5.84448 18.2974 5.74558C18.019 5.34945 17.706 4.97876 17.3622 4.63783C16.5215 3.78807 15.5182 3.11651 14.4122 2.6633C13.3062 2.21009 12.1201 1.98452 10.9249 2.00008C10.8261 2.00208 10.728 1.98431 10.6362 1.94783C10.5444 1.91135 10.4608 1.85688 10.3904 1.78763C10.32 1.71838 10.2641 1.63575 10.2261 1.5446C10.188 1.45344 10.1686 1.3556 10.1689 1.25683C10.1671 1.05817 10.2442 0.866914 10.3833 0.725037C10.5223 0.58316 10.712 0.502254 10.9107 0.500077H11.0067C12.3853 0.494762 13.7513 0.763916 15.0249 1.29185C16.2985 1.81978 17.4543 2.59594 18.4249 3.57508C18.8302 3.9774 19.1994 4.41458 19.5282 4.88158C19.6069 4.99391 19.6533 5.12569 19.6624 5.26257C19.6714 5.39946 19.6428 5.53621 19.5795 5.65793C19.5162 5.77966 19.4208 5.8817 19.3036 5.95296C19.1864 6.02422 19.0518 6.06196 18.9147 6.06208L18.9132 6.06508Z" fill="currentColor"/>
<path d="M19.1471 6.10928C19.0967 6.1097 19.0464 6.10467 18.9971 6.09428L15.8636 5.46803C15.7668 5.4489 15.6747 5.41087 15.5927 5.35611C15.5106 5.30134 15.4401 5.23092 15.3853 5.14888C15.3305 5.06684 15.2924 4.97479 15.2733 4.87801C15.2541 4.78123 15.2542 4.68161 15.2736 4.58487C15.293 4.48813 15.3313 4.39617 15.3863 4.31425C15.4412 4.23233 15.5119 4.16206 15.594 4.10748C15.6762 4.05289 15.7684 4.01506 15.8652 3.99615C15.9621 3.97724 16.0617 3.97762 16.1584 3.99728L18.1886 4.40303L17.7859 2.37503C17.765 2.27785 17.7636 2.1775 17.7819 2.07979C17.8001 1.98209 17.8376 1.88899 17.8922 1.80591C17.9467 1.72282 18.0173 1.65141 18.0996 1.59582C18.182 1.54022 18.2747 1.50156 18.3721 1.48208C18.4696 1.4626 18.5699 1.46268 18.6674 1.48233C18.7648 1.50197 18.8574 1.54079 18.9397 1.59652C19.022 1.65225 19.0924 1.72378 19.1468 1.80696C19.2012 1.89013 19.2385 1.98329 19.2566 2.08103L19.8829 5.21453C19.9051 5.32357 19.9028 5.4362 19.8762 5.54425C19.8495 5.6523 19.7991 5.75306 19.7287 5.83922C19.6582 5.92538 19.5695 5.99479 19.4689 6.04241C19.3683 6.09003 19.2584 6.11466 19.1471 6.11453V6.10928ZM4.10511 21.1513C3.93221 21.1513 3.76461 21.0916 3.63067 20.9823C3.49674 20.8729 3.40469 20.7207 3.37011 20.5513L2.74311 17.4178C2.71884 17.2967 2.72486 17.1714 2.76063 17.0532C2.7964 16.935 2.86082 16.8274 2.94816 16.7401C3.0355 16.6527 3.14306 16.5883 3.26129 16.5525C3.37952 16.5168 3.50475 16.5108 3.62586 16.535L6.76011 17.162C6.95469 17.2016 7.12564 17.3167 7.23549 17.4821C7.34534 17.6475 7.38511 17.8497 7.3461 18.0444C7.30708 18.2391 7.19246 18.4103 7.02736 18.5206C6.86225 18.6309 6.66015 18.6713 6.46536 18.6328L4.43436 18.227L4.84086 20.2573C4.87899 20.4523 4.83817 20.6545 4.72736 20.8194C4.61655 20.9844 4.44482 21.0986 4.24986 21.137C4.20217 21.1463 4.1537 21.1511 4.10511 21.1513ZM4.42011 7.04903C4.36976 7.04918 4.31952 7.04441 4.27011 7.03478C4.07508 6.99569 3.90356 6.88073 3.79329 6.71518C3.68302 6.54963 3.64302 6.34706 3.68211 6.15203L4.08861 4.12178L2.05911 4.52753C1.96193 4.5484 1.86158 4.54975 1.76388 4.5315C1.66617 4.51324 1.57307 4.47575 1.48999 4.4212C1.4069 4.36665 1.33549 4.29613 1.2799 4.21374C1.22431 4.13135 1.18564 4.03873 1.16616 3.94127C1.14668 3.8438 1.14676 3.74344 1.16641 3.64601C1.18605 3.54857 1.22487 3.45602 1.2806 3.37372C1.33633 3.29142 1.40786 3.22102 1.49104 3.16661C1.57421 3.1122 1.66738 3.07487 1.76511 3.05678L4.89861 2.43053C5.01965 2.4063 5.14479 2.41232 5.26295 2.44805C5.3811 2.48379 5.48861 2.54813 5.57593 2.63538C5.66325 2.72263 5.72769 2.83008 5.76352 2.9482C5.79936 3.06633 5.80549 3.19147 5.78136 3.31253L5.15436 6.44678C5.12026 6.61647 5.02852 6.76915 4.89469 6.87891C4.76087 6.98868 4.59319 7.04878 4.42011 7.04903ZM16.9534 19.5845C16.8421 19.5845 16.7323 19.5598 16.6318 19.5122C16.5313 19.4645 16.4427 19.3951 16.3723 19.3089C16.302 19.2228 16.2516 19.1221 16.225 19.0141C16.1984 18.9061 16.1961 18.7935 16.2184 18.6845L16.8454 15.5503C16.8645 15.4535 16.9025 15.3614 16.9573 15.2793C17.012 15.1973 17.0825 15.1268 17.1645 15.072C17.2465 15.0172 17.3386 14.9791 17.4354 14.9599C17.5322 14.9408 17.6318 14.9409 17.7285 14.9603C17.8253 14.9796 17.9172 15.0179 17.9991 15.0729C18.0811 15.1279 18.1513 15.1985 18.2059 15.2807C18.2605 15.3629 18.2983 15.4551 18.3172 15.5519C18.3361 15.6487 18.3358 15.7483 18.3161 15.845L17.9096 17.8753L19.9406 17.4695C20.0378 17.4487 20.1381 17.4473 20.2358 17.4656C20.3335 17.4838 20.4266 17.5213 20.5097 17.5759C20.5928 17.6304 20.6642 17.7009 20.7198 17.7833C20.7754 17.8657 20.8141 17.9583 20.8336 18.0558C20.853 18.1533 20.853 18.2536 20.8333 18.351C20.8137 18.4485 20.7748 18.541 20.7191 18.6233C20.6634 18.7056 20.5919 18.776 20.5087 18.8304C20.4255 18.8849 20.3323 18.9222 20.2346 18.9403L17.1011 19.5665C17.0526 19.5773 17.0031 19.5834 16.9534 19.5845Z" fill="currentColor"/>
<path d="M11 17.75C9.66498 17.75 8.35994 17.3541 7.2499 16.6124C6.13987 15.8707 5.27471 14.8165 4.76382 13.5831C4.25292 12.3497 4.11925 10.9925 4.3797 9.68314C4.64015 8.37377 5.28303 7.17104 6.22703 6.22703C7.17104 5.28303 8.37377 4.64015 9.68314 4.3797C10.9925 4.11925 12.3497 4.25292 13.5831 4.76382C14.8165 5.27471 15.8707 6.13987 16.6124 7.2499C17.3541 8.35994 17.75 9.66498 17.75 11C17.748 12.7896 17.0362 14.5053 15.7708 15.7708C14.5053 17.0362 12.7896 17.748 11 17.75ZM11 5.75C9.96165 5.75 8.94662 6.05791 8.08326 6.63479C7.2199 7.21166 6.547 8.0316 6.14964 8.99091C5.75228 9.95023 5.64831 11.0058 5.85088 12.0242C6.05345 13.0426 6.55347 13.9781 7.28769 14.7123C8.02192 15.4465 8.95738 15.9466 9.97578 16.1491C10.9942 16.3517 12.0498 16.2477 13.0091 15.8504C13.9684 15.453 14.7883 14.7801 15.3652 13.9167C15.9421 13.0534 16.25 12.0384 16.25 11C16.2484 9.6081 15.6948 8.27367 14.7106 7.28945C13.7263 6.30522 12.3919 5.75159 11 5.75Z" fill="currentColor"/>
<path d="M11.375 14H9.5C9.30109 14 9.11032 13.921 8.96967 13.7803C8.82902 13.6397 8.75 13.4489 8.75 13.25C8.75 13.0511 8.82902 12.8603 8.96967 12.7197C9.11032 12.579 9.30109 12.5 9.5 12.5H11.375C11.4745 12.5 11.5698 12.4605 11.6402 12.3902C11.7105 12.3198 11.75 12.2245 11.75 12.125C11.75 12.0255 11.7105 11.9302 11.6402 11.8598C11.5698 11.7895 11.4745 11.75 11.375 11.75H10.625C10.1277 11.75 9.65081 11.5525 9.29917 11.2008C8.94754 10.8492 8.75 10.3723 8.75 9.875C8.75 9.37772 8.94754 8.90081 9.29917 8.54917C9.65081 8.19754 10.1277 8 10.625 8H12.5C12.6989 8 12.8897 8.07902 13.0303 8.21967C13.171 8.36032 13.25 8.55109 13.25 8.75C13.25 8.94891 13.171 9.13968 13.0303 9.28033C12.8897 9.42098 12.6989 9.5 12.5 9.5H10.625C10.5255 9.5 10.4302 9.53951 10.3598 9.60983C10.2895 9.68016 10.25 9.77554 10.25 9.875C10.25 9.97446 10.2895 10.0698 10.3598 10.1402C10.4302 10.2105 10.5255 10.25 10.625 10.25H11.375C11.8723 10.25 12.3492 10.4475 12.7008 10.7992C13.0525 11.1508 13.25 11.6277 13.25 12.125C13.25 12.6223 13.0525 13.0992 12.7008 13.4508C12.3492 13.8025 11.8723 14 11.375 14Z" fill="currentColor"/>
<path d="M11 9.5C10.8011 9.5 10.6103 9.42098 10.4697 9.28033C10.329 9.13968 10.25 8.94891 10.25 8.75V7.625C10.25 7.42609 10.329 7.23532 10.4697 7.09467C10.6103 6.95402 10.8011 6.875 11 6.875C11.1989 6.875 11.3897 6.95402 11.5303 7.09467C11.671 7.23532 11.75 7.42609 11.75 7.625V8.75C11.75 8.94891 11.671 9.13968 11.5303 9.28033C11.3897 9.42098 11.1989 9.5 11 9.5ZM11 15.125C10.8011 15.125 10.6103 15.046 10.4697 14.9053C10.329 14.7647 10.25 14.5739 10.25 14.375V13.25C10.25 13.0511 10.329 12.8603 10.4697 12.7197C10.6103 12.579 10.8011 12.5 11 12.5C11.1989 12.5 11.3897 12.579 11.5303 12.7197C11.671 12.8603 11.75 13.0511 11.75 13.25V14.375C11.75 14.5739 11.671 14.7647 11.5303 14.9053C11.3897 15.046 11.1989 15.125 11 15.125Z" fill="currentColor"/>
</svg>
