<svg width="22" height="20" viewBox="0 0 22 20" fill="currentColor" xmlns="http://www.w3.org/2000/svg">
<path d="M13.5 7.25H1C0.59 7.25 0.25 6.91 0.25 6.5C0.25 6.09 0.59 5.75 1 5.75H13.5C13.91 5.75 14.25 6.09 14.25 6.5C14.25 6.91 13.91 7.25 13.5 7.25ZM7 15.25H5C4.59 15.25 4.25 14.91 4.25 14.5C4.25 14.09 4.59 13.75 5 13.75H7C7.41 13.75 7.75 14.09 7.75 14.5C7.75 14.91 7.41 15.25 7 15.25ZM13.5 15.25H9.5C9.09 15.25 8.75 14.91 8.75 14.5C8.75 14.09 9.09 13.75 9.5 13.75H13.5C13.91 13.75 14.25 14.09 14.25 14.5C14.25 14.91 13.91 15.25 13.5 15.25Z" fill="currentColor"/>
<path d="M16.56 19.25H5.44C1.46 19.25 0.25 18.05 0.25 14.11V5.89C0.25 1.95 1.46 0.75 5.44 0.75H13.5C13.91 0.75 14.25 1.09 14.25 1.5C14.25 1.91 13.91 2.25 13.5 2.25H5.44C2.3 2.25 1.75 2.79 1.75 5.89V14.1C1.75 17.2 2.3 17.74 5.44 17.74H16.55C19.69 17.74 20.24 17.2 20.24 14.1V12.02C20.24 11.61 20.58 11.27 20.99 11.27C21.4 11.27 21.74 11.61 21.74 12.02V14.1C21.75 18.05 20.54 19.25 16.56 19.25Z" fill="currentColor"/>
<path d="M19 8.25C18.8013 8.24921 18.611 8.16994 18.4705 8.02946C18.3301 7.88898 18.2508 7.69867 18.25 7.5V1.5C18.25 1.09 18.59 0.75 19 0.75C19.41 0.75 19.75 1.09 19.75 1.5V5.69L20.47 4.97C20.76 4.68 21.24 4.68 21.53 4.97C21.82 5.26 21.82 5.74 21.53 6.03L19.53 8.03C19.3895 8.17069 19.1988 8.24983 19 8.25Z" fill="currentColor"/>
<path d="M18.9999 8.24994C18.8099 8.24994 18.6199 8.17994 18.4699 8.02994L16.4699 6.02994C16.1799 5.73994 16.1799 5.25994 16.4699 4.96994C16.7599 4.67994 17.2399 4.67994 17.5299 4.96994L19.5299 6.96994C19.8199 7.25994 19.8199 7.73994 19.5299 8.02994C19.3799 8.17994 19.1899 8.24994 18.9999 8.24994Z" fill="currentColor"/>
</svg>
