<svg width="24" height="24" viewBox="0 0 24 24" fill="none" xmlns="http://www.w3.org/2000/svg">
<path d="M24 4.05005V8.325C24 9.15342 23.3284 9.825 22.5 9.825H18.225C17.3966 9.825 16.725 9.15342 16.725 8.325C16.725 7.49658 17.3966 6.825 18.225 6.825H19.3711C17.7148 4.45102 15.0003 3 12 3C8.26692 3 4.97587 5.24592 3.61566 8.7217C3.31369 9.49317 2.4435 9.87375 1.67213 9.57187C0.900656 9.26995 0.520031 8.39981 0.821953 7.62839C1.69191 5.40544 3.19134 3.5078 5.15817 2.14059C7.17272 0.740203 9.53855 0 12 0C14.4615 0 16.8273 0.740203 18.8418 2.14055C19.6423 2.69695 20.3653 3.3413 21 4.05961V4.05009C21 3.22167 21.6716 2.55009 22.5 2.55009C23.3284 2.55009 24 3.22163 24 4.05005ZM22.3279 14.4282C21.5565 14.1262 20.6863 14.5069 20.3843 15.2783C19.0241 18.7541 15.7331 21 12 21C9.06342 21 6.40059 19.61 4.73578 17.325H5.77495C6.60337 17.325 7.27495 16.6534 7.27495 15.825C7.27495 14.9966 6.60337 14.325 5.77495 14.325H1.5C0.671578 14.325 0 14.9966 0 15.825V20.1C0 20.9284 0.671578 21.6 1.5 21.6C2.32842 21.6 3 20.9284 3 20.1V19.9404C3.63469 20.6588 4.35773 21.303 5.15817 21.8595C7.17272 23.2598 9.53855 24 12 24C14.4615 24 16.8273 23.2598 18.8418 21.8595C20.8087 20.4923 22.3081 18.5946 23.178 16.3717C23.48 15.6002 23.0993 14.7301 22.3279 14.4282Z" fill="white"/>
</svg>
