<svg width="18" height="18" viewBox="0 0 18 18" fill="currentColor" xmlns="http://www.w3.org/2000/svg">
<path d="M10 18V16H14.6L10 11.4V8.6L16 14.6V10H18V18H10ZM3 14V13H0V11H6V8H2C1.45 8 0.979333 7.80433 0.588 7.413C0.196667 7.02167 0.000666667 6.55067 0 6V3C0 2.45 0.196 1.97933 0.588 1.588C0.98 1.19667 1.45067 1.00067 2 1H3V0H5V1H8V3H2V6H6C6.55 6 7.021 6.196 7.413 6.588C7.805 6.98 8.00067 7.45067 8 8V11C8 11.55 7.80433 12.021 7.413 12.413C7.02167 12.805 6.55067 13.0007 6 13H5V14H3Z" fill="currentColor"/>
</svg>
