<svg width="22" height="22" viewBox="0 0 22 22" fill="currentColor" xmlns="http://www.w3.org/2000/svg">
<path fill-rule="evenodd" clip-rule="evenodd" d="M6.99999 2.758C6.99999 2.39565 7.0714 2.03684 7.21012 1.7021C7.34885 1.36735 7.55218 1.06322 7.8085 0.807093C8.06481 0.550963 8.36909 0.347852 8.70394 0.209367C9.03878 0.0708819 9.39764 -0.000262041 9.75999 7.25229e-07H12.243C12.9743 0.000265879 13.6755 0.290957 14.1925 0.808154C14.7096 1.32535 15 2.02671 15 2.758C15 3.342 15.632 3.707 16.138 3.415C16.4517 3.23385 16.798 3.11628 17.1572 3.069C17.5164 3.02172 17.8813 3.04566 18.2312 3.13945C18.5811 3.23324 18.9091 3.39505 19.1965 3.61562C19.4838 3.8362 19.7249 4.11123 19.906 4.425L21.147 6.575C21.3281 6.88871 21.4457 7.23504 21.493 7.5942C21.5403 7.95336 21.5163 8.31832 21.4225 8.66823C21.3288 9.01813 21.1669 9.34613 20.9464 9.6335C20.7258 9.92086 20.4508 10.162 20.137 10.343C20.0215 10.4095 19.9256 10.5052 19.8589 10.6205C19.7922 10.7359 19.757 10.8668 19.757 11C19.757 11.1332 19.7922 11.2641 19.8589 11.3795C19.9256 11.4948 20.0215 11.5905 20.137 11.657C20.4508 11.8381 20.7258 12.0791 20.9464 12.3665C21.1669 12.6539 21.3288 12.9819 21.4225 13.3318C21.5163 13.6817 21.5403 14.0466 21.493 14.4058C21.4457 14.765 21.3281 15.1113 21.147 15.425L19.906 17.575C19.7249 17.8888 19.4838 18.1638 19.1965 18.3844C18.9091 18.605 18.5811 18.7668 18.2312 18.8606C17.8813 18.9543 17.5164 18.9783 17.1572 18.931C16.798 18.8837 16.4517 18.7661 16.138 18.585C16.0227 18.5182 15.8918 18.483 15.7586 18.4829C15.6253 18.4828 15.4944 18.5178 15.379 18.5844C15.2636 18.651 15.1678 18.7469 15.1013 18.8624C15.0347 18.9778 14.9998 19.1087 15 19.242C15 19.9735 14.7094 20.675 14.1922 21.1922C13.675 21.7094 12.9735 22 12.242 22H9.75899C9.39672 22.0001 9.03798 21.9289 8.70324 21.7903C8.36851 21.6518 8.06436 21.4487 7.80815 21.1926C7.55194 20.9364 7.34869 20.6324 7.21003 20.2977C7.07136 19.963 6.99999 19.6043 6.99999 19.242C7.00009 19.1089 6.96514 18.9781 6.89865 18.8628C6.83216 18.7475 6.73648 18.6517 6.62123 18.5851C6.50599 18.5185 6.37523 18.4835 6.24213 18.4834C6.10903 18.4834 5.97826 18.5184 5.86299 18.585C5.54928 18.7661 5.20295 18.8837 4.84379 18.931C4.48463 18.9783 4.11967 18.9543 3.76977 18.8606C3.41986 18.7668 3.09186 18.605 2.8045 18.3844C2.51714 18.1638 2.27604 17.8888 2.09499 17.575L0.852992 15.425C0.671842 15.1113 0.554269 14.765 0.506989 14.4058C0.459709 14.0466 0.483649 13.6817 0.57744 13.3318C0.671231 12.9819 0.833037 12.6539 1.05362 12.3665C1.27419 12.0791 1.54922 11.8381 1.86299 11.657C1.97848 11.5905 2.07442 11.4948 2.14112 11.3795C2.20783 11.2641 2.24295 11.1332 2.24295 11C2.24295 10.8668 2.20783 10.7359 2.14112 10.6205C2.07442 10.5052 1.97848 10.4095 1.86299 10.343C1.54922 10.162 1.27419 9.92086 1.05362 9.6335C0.833037 9.34613 0.671231 9.01813 0.57744 8.66823C0.483649 8.31832 0.459709 7.95336 0.506989 7.5942C0.554269 7.23504 0.671842 6.88871 0.852992 6.575L2.09499 4.425C2.27604 4.11123 2.51714 3.8362 2.8045 3.61562C3.09186 3.39505 3.41986 3.23324 3.76977 3.13945C4.11967 3.04566 4.48463 3.02172 4.84379 3.069C5.20295 3.11628 5.54928 3.23385 5.86299 3.415C5.97826 3.48155 6.10903 3.51658 6.24213 3.51655C6.37523 3.51653 6.50599 3.48146 6.62123 3.41486C6.73648 3.34827 6.83216 3.2525 6.89865 3.13719C6.96514 3.02189 7.00009 2.8911 6.99999 2.758ZM9.75999 2C9.66037 1.99987 9.56169 2.01938 9.46961 2.05741C9.37753 2.09545 9.29385 2.15126 9.22336 2.22166C9.15287 2.29206 9.09694 2.37567 9.05879 2.4677C9.02063 2.55973 9.00099 2.65837 9.00099 2.758C9.00099 4.882 6.70299 6.208 4.86399 5.147C4.77773 5.09717 4.68249 5.06483 4.58372 5.05183C4.48495 5.03883 4.38458 5.04543 4.28837 5.07125C4.19215 5.09707 4.10196 5.1416 4.02297 5.2023C3.94397 5.263 3.87772 5.33868 3.82799 5.425L2.58599 7.575C2.53616 7.66126 2.50382 7.7565 2.49082 7.85527C2.47782 7.95405 2.48442 8.05441 2.51024 8.15063C2.53606 8.24685 2.58059 8.33703 2.64129 8.41603C2.70199 8.49502 2.77767 8.56128 2.86399 8.611C4.70299 9.673 4.70299 12.327 2.86399 13.389C2.77767 13.4387 2.70199 13.505 2.64129 13.584C2.58059 13.663 2.53606 13.7532 2.51024 13.8494C2.48442 13.9456 2.47782 14.046 2.49082 14.1447C2.50382 14.2435 2.53616 14.3387 2.58599 14.425L3.82799 16.575C3.87772 16.6613 3.94397 16.737 4.02297 16.7977C4.10196 16.8584 4.19215 16.9029 4.28837 16.9288C4.38458 16.9546 4.48495 16.9612 4.58372 16.9482C4.68249 16.9352 4.77773 16.9028 4.86399 16.853C6.70199 15.79 8.99999 17.118 8.99999 19.242C8.99999 19.66 9.33999 20 9.75899 20H12.242C12.661 20 13 19.66 13 19.242C13 17.118 15.299 15.792 17.138 16.852C17.2242 16.9019 17.3194 16.9343 17.4181 16.9473C17.5168 16.9604 17.6172 16.9539 17.7134 16.9282C17.8096 16.9025 17.8998 16.858 17.9788 16.7974C18.0579 16.7368 18.1242 16.6612 18.174 16.575L19.415 14.425C19.4649 14.3388 19.4973 14.2436 19.5103 14.1449C19.5234 14.0462 19.5169 13.9458 19.4912 13.8496C19.4654 13.7534 19.421 13.6632 19.3604 13.5842C19.2998 13.5051 19.2242 13.4388 19.138 13.389C17.298 12.327 17.298 9.673 19.138 8.611C19.2242 8.56119 19.2998 8.49488 19.3604 8.41584C19.421 8.33681 19.4654 8.24661 19.4912 8.1504C19.5169 8.05419 19.5234 7.95385 19.5103 7.85512C19.4973 7.75639 19.4649 7.6612 19.415 7.575L18.174 5.425C18.1243 5.33868 18.058 5.263 17.979 5.2023C17.9 5.1416 17.8098 5.09707 17.7136 5.07125C17.6174 5.04543 17.517 5.03883 17.4183 5.05183C17.3195 5.06483 17.2243 5.09717 17.138 5.147C15.298 6.21 13 4.882 13 2.758C13 2.55697 12.9201 2.36417 12.778 2.22201C12.6358 2.07986 12.443 2 12.242 2H9.75999ZM11 8C10.2043 8 9.44128 8.31607 8.87867 8.87868C8.31606 9.44129 7.99999 10.2044 7.99999 11C7.99999 11.7957 8.31606 12.5587 8.87867 13.1213C9.44128 13.6839 10.2043 14 11 14C11.7956 14 12.5587 13.6839 13.1213 13.1213C13.6839 12.5587 14 11.7957 14 11C14 10.2044 13.6839 9.44129 13.1213 8.87868C12.5587 8.31607 11.7956 8 11 8ZM5.99999 11C5.99999 9.67392 6.52678 8.40215 7.46446 7.46447C8.40214 6.52678 9.67391 6 11 6C12.3261 6 13.5978 6.52678 14.5355 7.46447C15.4732 8.40215 16 9.67392 16 11C16 12.3261 15.4732 13.5979 14.5355 14.5355C13.5978 15.4732 12.3261 16 11 16C9.67391 16 8.40214 15.4732 7.46446 14.5355C6.52678 13.5979 5.99999 12.3261 5.99999 11Z" fill="curentColor"/>
</svg>
