<svg width="140" height="140" viewBox="0 0 140 140" fill="none" xmlns="http://www.w3.org/2000/svg">
<path d="M70 140C31.4018 140 0 108.598 0 70C0 31.4018 31.4018 0 70 0C108.598 0 140 31.4018 140 70C140 108.598 108.598 140 70 140Z" fill="#FFF16B"/>
<path d="M140 70C140 31.4018 108.598 0 70 0V140C108.598 140 140 108.598 140 70Z" fill="#FFD400"/>
<path d="M70 123.32C40.5992 123.32 16.6797 99.4008 16.6797 70C16.6797 40.5992 40.5992 16.6797 70 16.6797C99.4008 16.6797 123.32 40.5992 123.32 70C123.32 99.4008 99.4008 123.32 70 123.32Z" fill="#FFD400"/>
<path d="M123.32 70C123.32 40.5992 99.4008 16.6797 70 16.6797V123.32C99.4008 123.32 123.32 99.4008 123.32 70Z" fill="#FF9F00"/>
<path d="M82.069 62.1143L73.2028 51.0316C71.5608 48.9792 68.4392 48.9792 66.7972 51.0316L57.931 62.1143L44.4905 55.394C41.4378 53.8677 37.9649 56.5201 38.6342 59.8669L44.103 87.2107C44.289 88.1404 44.7914 88.977 45.5247 89.5781C46.2579 90.1793 47.1768 90.5078 48.125 90.5078H91.875C93.8301 90.5078 95.5134 89.1278 95.897 87.2107L101.366 59.8669C102.035 56.5201 98.5624 53.8677 95.5095 55.394L82.069 62.1143Z" fill="#FFF16B"/>
<path d="M91.875 90.5078C93.8301 90.5078 95.5134 89.1278 95.897 87.2107L101.366 59.867C102.035 56.5201 98.5625 53.8677 95.5095 55.3941L82.069 62.1143L73.2028 51.0316C72.3819 50.0054 71.1908 49.4922 70 49.4922V90.5078H91.875Z" fill="#FFD400"/>
</svg>
