<svg width="24" height="24" viewBox="0 0 24 24" fill="currentColor" xmlns="http://www.w3.org/2000/svg">
<path d="M22.5938 11.4957V8.66616C22.5938 7.27603 21.4876 6.14002 20.1094 6.09042V4.35366C20.1094 3.44902 19.3734 2.71303 18.4688 2.71303H13.952L13.3687 1.09177C13.22 0.678329 12.9189 0.347954 12.5211 0.161532C12.1232 -0.0249363 11.6767 -0.0448113 11.2638 0.10547L3.0675 3.08864C2.65509 3.23874 2.32608 3.54056 2.14102 3.93853C1.95595 4.3365 1.93716 4.78261 2.08814 5.19474L2.41744 6.09356C1.07048 6.17686 0 7.29858 0 8.66616V21.4162C0 22.8377 1.15655 23.9943 2.57812 23.9943H20.0156C21.4372 23.9943 22.5938 22.8377 22.5938 21.4162V18.4929C23.3877 18.3788 24 17.6943 24 16.8693V13.1193C24 12.2942 23.3877 11.6098 22.5938 11.4957ZM22.5938 16.8693C22.5938 16.9985 22.4886 17.1037 22.3594 17.1037H18.6094C17.4463 17.1037 16.5 16.1574 16.5 14.9943C16.5 13.8312 17.4463 12.8849 18.6094 12.8849H22.3594C22.4886 12.8849 22.5938 12.99 22.5938 13.1193V16.8693ZM3.40856 4.71099C3.3979 4.68205 3.39308 4.6513 3.39437 4.62049C3.39567 4.58968 3.40306 4.55944 3.41611 4.5315C3.42906 4.50353 3.44743 4.47839 3.47015 4.45756C3.49287 4.43672 3.5195 4.42059 3.54848 4.41009L11.7448 1.42692C11.8244 1.398 11.8914 1.41952 11.9244 1.43494C11.9573 1.45036 12.0168 1.48814 12.0455 1.56783L12.4575 2.71308H12.1406C11.236 2.71308 10.5 3.44906 10.5 4.3537V6.08808H3.91308L3.40856 4.71099ZM18.7031 4.35366V6.08803H11.9062V4.35366C11.9062 4.22442 12.0114 4.11928 12.1406 4.11928H18.4688C18.598 4.11928 18.7031 4.22442 18.7031 4.35366ZM20.0156 22.588H2.57812C1.93195 22.588 1.40625 22.0623 1.40625 21.4162V8.66616C1.40625 8.01999 1.93195 7.49428 2.57812 7.49428H20.0156C20.6618 7.49428 21.1875 8.01999 21.1875 8.66616V11.4787H18.6094C16.6709 11.4787 15.0938 13.0558 15.0938 14.9943C15.0938 16.9328 16.6709 18.5099 18.6094 18.5099H21.1875V21.4162C21.1875 22.0623 20.6618 22.588 20.0156 22.588Z" fill="currentColor"/>
</svg>
