<svg width="28" height="26" viewBox="0 0 28 26" fill="none" xmlns="http://www.w3.org/2000/svg">
<path d="M27.9994 14.2355C27.9937 13.9659 27.8388 13.6489 27.5237 13.5081L21.4133 10.689V4.00635C21.4124 3.72739 21.2546 3.40155 20.9315 3.25953L14.3356 0.275733C14.1243 0.18016 13.8825 0.178576 13.6699 0.271252L7.08319 3.14538C6.82243 3.26248 6.58877 3.53559 6.59134 3.89663V10.6827L0.487029 13.3935C0.230639 13.5103 -0.00351198 13.7842 3.98958e-05 14.1427V21.4596C3.98958e-05 21.7835 0.190694 22.0769 0.486647 22.2085L7.07335 25.1376C7.20685 25.1564 7.25636 25.2962 7.73909 25.1378L13.9998 22.3575L20.2515 25.1376C20.385 25.1564 20.4345 25.2962 20.9172 25.1378L27.513 22.2087C27.8092 22.0772 28 21.7836 28 21.4596V14.2523C28 14.2467 27.9995 14.2412 27.9994 14.2355ZM7.41302 12.1115L12.0602 14.1781L7.40652 16.4552L2.75761 14.1789L7.41302 12.1115ZM13.178 7.63315V12.8807L8.23067 10.6791V5.21066L13.178 7.63315ZM19.7739 10.6807L17.0093 11.9084L14.8174 12.8818V7.64118L19.7739 5.3V10.6807ZM8.22608 17.8793L13.178 15.4562V20.9288L8.22608 23.1278V17.8793ZM14.8182 15.457L19.7648 17.8791V23.1271L14.8216 20.9289L14.8182 15.457ZM20.5909 16.4583L15.9357 14.1789L20.5871 12.1133L25.2426 14.2611L20.5909 16.4583ZM13.9918 1.91943L18.6404 4.02242L14.0041 6.21229L9.36229 3.93941L13.9918 1.91943ZM1.63937 15.4566L6.58675 17.8791V23.1271L1.63937 20.927V15.4566ZM21.4041 23.1278V17.8871L26.3606 15.546V20.9267L21.4041 23.1278Z" fill="white"/>
</svg>
