<svg xmlns="http://www.w3.org/2000/svg" width="162.769" height="48.222" viewBox="0 0 162.769 48.222">
  <g id="logo" transform="translate(-249.011 -777.515)">
    <g id="Group_29329" data-name="Group 29329" transform="translate(260.259 792.058)">
      <g id="Group_29328" data-name="Group 29328" transform="translate(0 0)">
        <path id="Path_6" data-name="Path 6" d="M373.343,925.809a5.185,5.185,0,0,1-3.166,2.432l-9.065,2.429a5.211,5.211,0,0,1-5.69-2.144l-.22-.332,13.96-3.741.068-.02a1.316,1.316,0,0,0,.133-.052c.024-.01.048-.023.073-.036a1.285,1.285,0,0,0,.267-.19l.034-.034.028-.027v0l.018-.019a1.413,1.413,0,0,0,.115-.148l.01-.015.015-.022.01-.016,0-.005.011-.019c.015-.025.029-.051.042-.078a1.431,1.431,0,0,0,.089-.239c0-.018.009-.034.012-.049a1.3,1.3,0,0,0,.03-.322c0-.027,0-.056-.006-.087a1.337,1.337,0,0,0-.022-.143l0-.007c0-.019-.009-.038-.014-.056s-.012-.044-.019-.067-.031-.084-.052-.133c-.011-.024-.024-.048-.037-.073a1.285,1.285,0,0,0-.19-.267l-.034-.035a1.289,1.289,0,0,0-.2-.162c-.024-.017-.049-.033-.076-.048l-.08-.043c-.043-.02-.081-.036-.117-.05s-.042-.016-.061-.021l-.05-.014-.061-.016a1.311,1.311,0,0,0-.323-.03c-.026,0-.056,0-.086.006l-.076.01-.178.048-9.12,2.443-.029.007c-.057.014-.117.029-.177.042l-.016,0a5.259,5.259,0,0,1-1.08.112,5.2,5.2,0,0,1-2.746-.789l-.1-.067-.041-.026h0c-.016-.01-.03-.021-.045-.031a5.16,5.16,0,0,1-1.356-1.35l-.045-.066c-.029-.042-.056-.085-.083-.128a5.222,5.222,0,0,1,3.076-7.8l9.066-2.429a5.218,5.218,0,0,1,5.69,2.145l.22.331-13.96,3.741-.061.018a1.293,1.293,0,0,0-.138.054c-.029.012-.053.025-.078.038a1.3,1.3,0,0,0-.263.187l-.036.034a1.34,1.34,0,0,0-.163.2c-.016.024-.033.05-.048.076s-.029.053-.042.08a1.3,1.3,0,0,0-.089.237l0,.016-.007.027-.006.025a1.279,1.279,0,0,0-.026.3c0,.033,0,.06,0,.088a1.408,1.408,0,0,0,.022.142c0,.018.009.039.016.061a1.2,1.2,0,0,0,.066.19,1.217,1.217,0,0,0,.058.115.978.978,0,0,0,.068.107,1.3,1.3,0,0,0,1.264.536l.2-.054,9.043-2.423.043-.011.076-.019c.054-.013.106-.025.16-.036a5.184,5.184,0,0,1,3.824.676l.026.016c.019.011.039.024.059.038l.021.013.059.038.024.016.173.123a5.165,5.165,0,0,1,1.186,1.229l.259.386-.014,0a5.207,5.207,0,0,1-.027,5.171Z" transform="translate(-352.808 -911.713)" fill="#ffef00"/>
      </g>
    </g>
    <path id="Path_7" data-name="Path 7" d="M279.79,781.522a5.7,5.7,0,0,0-5.7,0l-3.848,2.221-2.381,1.375-12.147,7.013a1.282,1.282,0,0,0-.64,1.107v16.775a1.282,1.282,0,0,0,.64,1.107l-3.848-2.222a5.7,5.7,0,0,1-2.852-4.939V793.238a7.359,7.359,0,0,1,3.67-6.355l13.4-7.74,1.123-.648a7.358,7.358,0,0,1,7.338,0l2.391,1.38Z" transform="translate(0 0)" fill="#ffef00"/>
    <path id="Path_8" data-name="Path 8" d="M286.684,1027.589v4.443a5.7,5.7,0,0,1-2.852,4.939l-.806.465h0l-8.48,4.9a7.357,7.357,0,0,1-7.338,0l-14.528-8.388a7.345,7.345,0,0,1-3.67-6.355v-6.054a5.7,5.7,0,0,0,2.852,4.939l3.848,2.222,4.113,2.375,10.415,6.013a1.281,1.281,0,0,0,1.278,0l14.528-8.388h0l.005,0A1.278,1.278,0,0,0,286.684,1027.589Z" transform="translate(0 -217.576)" fill="#ffef00"/>
    <path id="Path_9" data-name="Path 9" d="M467.395,819.922V836.7a7.358,7.358,0,0,1-3.636,6.335l-2.424,1.4-2.852,1.647a5.7,5.7,0,0,0,2.852-4.939V819.922c0-.025,0-.05,0-.074a.15.15,0,0,0,0-.017s0-.006,0-.009c0-.02,0-.038-.006-.057a.025.025,0,0,0,0-.006s0,0,0,0,0,0,0,0a.043.043,0,0,0,0-.009.555.555,0,0,0-.011-.07h0l-.006-.031c0-.01,0-.02-.007-.03l0-.009a.03.03,0,0,0,0,0,.067.067,0,0,0,0-.007s0,0,0,0h0c-.006-.025-.014-.049-.023-.073h0c-.007-.022-.015-.044-.024-.066l0-.011a.049.049,0,0,0,0-.009q-.014-.034-.03-.066c-.011-.021-.021-.043-.034-.063a.078.078,0,0,0-.008-.013.006.006,0,0,0,0,0c-.01-.018-.021-.036-.032-.053l-.006-.008h0c-.011-.018-.024-.036-.037-.053a.083.083,0,0,0-.01-.013h0a.687.687,0,0,0-.048-.059.132.132,0,0,0-.015-.017c0-.006-.01-.011-.015-.016s-.019-.021-.029-.031l-.021-.021L460.94,819l-.024-.024-.006,0-.012-.01a.373.373,0,0,0-.038-.033l-.013-.011-.006,0c-.014-.012-.029-.022-.044-.032l-.017-.013h0l-.014-.008-.006,0c-.016-.011-.034-.023-.051-.033l-.013-.008L448.548,811.8l-2.381-1.375a1.284,1.284,0,0,0-1.278,0l3.848-2.221a5.7,5.7,0,0,1,5.7,0l6.228,3.6,3.057,1.765A7.358,7.358,0,0,1,467.395,819.922Z" transform="translate(-174.651 -26.684)" fill="#ffef00"/>
    <g id="Group_29330" data-name="Group 29330" transform="translate(303.581 785.586)">
      <path id="Path_10" data-name="Path 10" d="M755.1,936.678a7.008,7.008,0,0,1-2.538-1.019l1.243-2.935a8.047,8.047,0,0,0,4.731,1.45q2.659,0,2.659-1.554a1.226,1.226,0,0,0-.552-1.07,9.733,9.733,0,0,0-1.968-.9l-1.312-.483a10.133,10.133,0,0,1-3.28-1.985,4.034,4.034,0,0,1-1.209-3.056,3.953,3.953,0,0,1,1.709-3.4,7.7,7.7,0,0,1,4.575-1.226,12.478,12.478,0,0,1,2.78.311,6.4,6.4,0,0,1,2.089.794l-1.347,2.969a3.676,3.676,0,0,0-1.433-.777,6.909,6.909,0,0,0-2.193-.328q-2.453,0-2.452,1.485a1.414,1.414,0,0,0,.656,1.26,10.366,10.366,0,0,0,2.141.95q.138.035,1.071.38a9.225,9.225,0,0,1,3.281,1.968,3.9,3.9,0,0,1,1.07,2.832,4.024,4.024,0,0,1-1.778,3.557,7.845,7.845,0,0,1-4.506,1.209A14.568,14.568,0,0,1,755.1,936.678Z" transform="translate(-752.562 -913.077)" fill="#ffef00"/>
      <path id="Path_11" data-name="Path 11" d="M884.574,936.091a7.544,7.544,0,0,1-2.987-2.935,8.862,8.862,0,0,1-1.1-4.506,8.761,8.761,0,0,1,1.018-4.3,7.043,7.043,0,0,1,2.866-2.849,8.81,8.81,0,0,1,4.264-1,9.578,9.578,0,0,1,3.16.466,6.07,6.07,0,0,1,2.089,1.157l-1.658,3a4.527,4.527,0,0,0-3.28-1.45,4.194,4.194,0,0,0-3.367,1.347,5.32,5.32,0,0,0-1.157,3.591,5.991,5.991,0,0,0,1.191,3.971A4.116,4.116,0,0,0,888.942,934a7.122,7.122,0,0,0,2.089-.311,5.156,5.156,0,0,0,1.571-.725l1.347,2.624a7.423,7.423,0,0,1-2.124,1.053,9.294,9.294,0,0,1-3.021.466A8.748,8.748,0,0,1,884.574,936.091Z" transform="translate(-866.619 -913.077)" fill="#ffef00"/>
      <path id="Path_12" data-name="Path 12" d="M1019.553,920.915h3.729v3.108a5.4,5.4,0,0,1,1.8-2.555,4.491,4.491,0,0,1,2.831-.967,3.8,3.8,0,0,1,1.519.207l-.518,3.764a2.8,2.8,0,0,0-1.347-.207,4.687,4.687,0,0,0-2.952,1.036,3.943,3.943,0,0,0-1.329,3.315v8.149h-3.729Z" transform="translate(-990.619 -913.077)" fill="#ffef00"/>
      <path id="Path_13" data-name="Path 13" d="M1126.212,856.139a2.439,2.439,0,0,1-.725-1.8,2.209,2.209,0,0,1,.725-1.657,2.5,2.5,0,0,1,1.8-.691,2.46,2.46,0,0,1,1.761.691,2.208,2.208,0,0,1,.725,1.657,2.471,2.471,0,0,1-.708,1.8,2.382,2.382,0,0,1-1.778.725A2.439,2.439,0,0,1,1126.212,856.139Zm-.1,3.695h3.867v15.849h-3.867Z" transform="translate(-1085.073 -851.995)" fill="#ffef00"/>
      <path id="Path_14" data-name="Path 14" d="M1186.493,920.915h3.591v2.935a6.352,6.352,0,0,1,5.939-3.349,7.235,7.235,0,0,1,5.421,2.124,8.423,8.423,0,0,1,2.072,6.129,9.143,9.143,0,0,1-1.019,4.385,7.346,7.346,0,0,1-6.647,3.971,7.915,7.915,0,0,1-3.47-.708,5.436,5.436,0,0,1-2.3-2.02l.034,10.774h-3.625Zm11.947,11.619a5.507,5.507,0,0,0,1.209-3.677,5.586,5.586,0,0,0-1.191-3.747,4.306,4.306,0,0,0-3.47-1.4,4.73,4.73,0,0,0-2.331.6,4.447,4.447,0,0,0-1.726,1.727,5.177,5.177,0,0,0-.639,2.607v.242a5.368,5.368,0,0,0,.639,2.642,4.664,4.664,0,0,0,1.709,1.8,4.5,4.5,0,0,0,2.348.639A4.266,4.266,0,0,0,1198.44,932.535Z" transform="translate(-1139.468 -913.077)" fill="#ffef00"/>
      <path id="Path_15" data-name="Path 15" d="M1481.385,867.418h-2.8v-3.039h2.8v-6.457l3.764-.829v7.286h3.66v3.039h-3.66v12.811h-3.764Z" transform="translate(-1399.908 -856.54)" fill="#ffef00"/>
      <path id="Path_16" data-name="Path 16" d="M1361.181,867.418h-2.8v-3.039h2.8v-6.457l3.764-.829v7.286h3.66v3.039h-3.66v12.811h-3.764Z" transform="translate(-1292.731 -856.54)" fill="#ffef00"/>
      <path id="Path_17" data-name="Path 17" d="M1602.225,924.385l-9.836,15.843h-4.741l-3.5-15.843h4.535l2.3,10.807,6.655-10.807Z" transform="translate(-1494.025 -916.54)" fill="#ffef00"/>
      <circle id="Ellipse_270" data-name="Ellipse 270" cx="1.403" cy="1.403" r="1.403" transform="translate(75.874 20.882)" fill="#ffef00"/>
    </g>
  </g>
</svg>
